<?xml version="1.0" standalone="no"?>
<!DOCTYPE svg PUBLIC "-//W3C//DTD SVG 20010904//EN"
 "http://www.w3.org/TR/2001/REC-SVG-20010904/DTD/svg10.dtd">
<svg version="1.0" xmlns="http://www.w3.org/2000/svg"
 width="512.000000pt" height="512.000000pt" viewBox="0 0 512.000000 512.000000"
 preserveAspectRatio="xMidYMid meet">

<g transform="translate(0.000000,512.000000) scale(0.100000,-0.100000)"
stroke="none">
<path d="M1010 5111 c-48 -15 -87 -40 -120 -77 -58 -66 -60 -79 -60 -357 l0
-254 -327 -229 c-181 -126 -349 -249 -376 -273 -30 -28 -61 -72 -85 -120 l-37
-75 -3 -1670 c-2 -1169 1 -1687 8 -1723 34 -163 161 -289 325 -323 34 -7 450
-10 1265 -8 l1215 3 58 23 c108 44 194 131 241 246 21 51 21 52 24 1720 3
1845 6 1733 -61 1844 -18 30 -48 68 -67 86 -19 17 -185 136 -367 264 l-333
233 0 252 c0 232 -2 256 -21 297 -25 55 -62 95 -114 123 -39 22 -47 22 -590
24 -302 1 -561 -2 -575 -6z m1100 -171 c22 -12 40 -61 40 -111 l0 -39 -581 0
-581 0 4 61 c8 106 -35 99 575 99 323 0 531 -4 543 -10z m-950 -400 l0 -80
-85 0 -85 0 0 80 0 80 85 0 85 0 0 -80z m330 0 l0 -80 -85 0 -85 0 0 80 0 80
85 0 85 0 0 -80z m330 0 l0 -80 -85 0 -85 0 0 80 0 80 85 0 85 0 0 -80z m330
0 l0 -80 -85 0 -85 0 0 80 0 80 85 0 85 0 0 -80z m382 -475 c178 -124 340
-242 362 -262 41 -39 76 -108 76 -150 l0 -25 -37 30 c-60 46 -122 78 -208 109
l-80 28 -1070 0 -1070 0 -75 -23 c-91 -29 -152 -59 -215 -107 l-48 -37 6 42
c12 94 35 115 407 377 l345 242 642 1 642 0 323 -225z m123 -450 c72 -19 145
-58 199 -107 l41 -37 -292 -1 -293 0 0 -85 0 -85 330 0 330 0 0 -80 0 -80
-330 0 -330 0 0 -85 0 -85 330 0 330 0 0 -1307 c0 -1252 -1 -1310 -19 -1349
-10 -22 -35 -57 -56 -77 -74 -72 17 -68 -1341 -65 l-1221 3 -49 30 c-30 19
-60 49 -79 79 l-30 49 -3 1520 c-2 1515 -2 1519 18 1552 30 49 134 142 191
171 108 54 73 53 1184 53 895 1 1039 -1 1090 -14z"/>
<path d="M557 3459 c-93 -22 -169 -87 -203 -175 -18 -47 -19 -99 -19 -1394 l0
-1345 23 -45 c31 -60 83 -112 140 -141 l47 -24 1015 0 c974 0 1017 1 1064 19
66 25 128 84 157 149 l24 52 0 960 c0 918 -1 962 -19 1009 -24 62 -77 121
-136 151 -70 35 -1897 765 -1955 781 -56 15 -83 16 -138 3z m1028 -531 c511
-204 951 -382 977 -395 84 -41 78 35 78 -1015 0 -905 -1 -934 -19 -962 -11
-16 -30 -35 -43 -42 -18 -11 -227 -13 -1015 -14 l-992 0 -36 35 -35 36 0 1320
c0 1445 -4 1360 58 1393 15 9 43 15 62 16 23 0 348 -125 965 -372z"/>
<path d="M660 2810 l0 -80 370 0 370 0 0 80 0 80 -370 0 -370 0 0 -80z"/>
<path d="M662 2478 l3 -83 368 -3 367 -2 0 85 0 85 -370 0 -371 0 3 -82z"/>
<path d="M1312 1992 c-138 -207 -263 -405 -276 -438 -91 -223 -40 -473 128
-639 116 -114 242 -168 396 -168 163 -1 300 54 411 163 120 119 173 248 172
420 0 178 -11 200 -311 652 -141 213 -260 388 -263 388 -3 0 -119 -170 -257
-378z m448 -197 c199 -300 220 -344 220 -465 0 -338 -369 -535 -645 -345 -110
75 -167 181 -173 321 -7 144 2 164 215 484 102 154 189 280 193 280 4 0 89
-124 190 -275z"/>
<path d="M1343 1438 c-26 -49 -24 -170 4 -224 40 -74 100 -117 196 -138 l27
-6 0 84 c0 81 -1 84 -25 90 -38 10 -58 49 -53 99 l5 43 -60 40 c-79 51 -73 50
-94 12z"/>
<path d="M4135 4604 c-16 -8 -37 -22 -46 -30 -43 -39 -47 -74 -124 -919 -41
-456 -75 -833 -75 -837 0 -5 -58 -8 -130 -8 l-130 0 0 -189 0 -189 -132 -99
c-111 -83 -138 -109 -163 -154 l-30 -54 0 -965 c0 -959 0 -965 21 -1010 24
-53 72 -102 123 -127 33 -17 86 -18 745 -21 802 -3 773 -5 851 73 79 79 75 20
75 1081 0 1022 2 985 -55 1059 -13 18 -80 74 -149 126 l-126 93 0 188 0 188
-128 0 -128 0 -73 808 c-40 444 -75 826 -78 850 -12 88 -82 152 -167 152 -28
0 -64 -7 -81 -16z m154 -929 c39 -429 73 -799 77 -822 l5 -43 -155 0 -156 0 0
28 c0 42 140 1595 146 1611 2 8 6 12 9 10 2 -3 36 -356 74 -784z m-329 -1115
l0 -80 -80 0 -80 0 0 80 0 80 80 0 80 0 0 -80z m330 0 l0 -80 -80 0 -80 0 0
80 0 80 80 0 80 0 0 -80z m330 0 l0 -80 -80 0 -80 0 0 80 0 80 80 0 80 0 0
-80z m179 -336 c123 -92 150 -118 151 -146 0 -16 -14 -18 -165 -18 l-165 0 0
-80 0 -80 165 0 165 0 0 -842 0 -842 -22 -23 -21 -23 -698 0 -698 0 -20 26
c-21 27 -21 32 -21 865 l0 839 495 0 495 0 0 80 0 80 -495 0 c-545 0 -525 -3
-467 60 15 16 74 65 132 109 l105 80 474 0 474 1 116 -86z"/>
<path d="M4197 1708 c-44 -68 -344 -601 -364 -645 -66 -142 -29 -328 88 -445
128 -128 335 -156 494 -67 88 49 161 140 190 235 20 67 19 187 -3 249 -13 37
-367 670 -387 693 -2 2 -10 -7 -18 -20z m250 -738 c45 -144 -56 -291 -212
-307 -143 -15 -268 99 -267 241 1 74 8 90 204 429 l40 69 111 -194 c60 -106
117 -213 124 -238z"/>
</g>
</svg>
